<?xml version="1.0" encoding="UTF-8"?>
<svg xmlns="http://www.w3.org/2000/svg" xmlns:cc="http://creativecommons.org/ns#" xmlns:dc="http://purl.org/dc/elements/1.1/" xmlns:rdf="http://www.w3.org/1999/02/22-rdf-syntax-ns#">
 <symbol width="120" height="120" viewBox="0 0 120 120">
  <path d="m120 60c0 33.137-26.863 60-60 60s-60-26.863-60-60c0-33.141 26.863-60 60-60s60 26.859 60 60" fill="currentColor"/>
  <g>
   <path d="m34.559 48.633c4.418 0 8-3.582 8-8 0-4.4219-3.582-8-8-8-4.4219 0-8 3.5781-8 8 0 4.418 3.5781 8 8 8"/>
   <path d="m86.582 48.629c4.418 0 8-3.5781 8-8 0-4.418-3.582-7.9961-8-7.9961-4.4219 0-8 3.5781-8 7.9961 0 4.4219 3.5781 8 8 8"/>
   <path d="m66.559 96.633h8v-80h-8z"/>
   <path d="m34.508 72.633c-4.4219 0-8 3.5859-8 8 0 4.4219 3.5781 8 8 8 4.418 0 8-3.5781 8-8 0-4.4141-3.582-8-8-8"/>
   <path d="m86.582 72.633c-4.4219 0-8 3.5859-8 8 0 4.4219 3.5781 8 8 8 4.418 0 8-3.5781 8-8 0-4.4141-3.582-8-8-8"/>
   <path d="m26.152 64.633h22.418v32h8v-40h-30.418z"/>
  </g>
 </symbol>
</svg>
