<?xml version="1.0" encoding="utf-8"?>
<svg version="1.1" xmlns="http://www.w3.org/2000/svg" xmlns:xlink="http://www.w3.org/1999/xlink" x="0px"
	 y="0px" viewBox="0 0 320 1200" style="enable-background:new 0 0 320 1200;" xml:space="preserve">
<style type="text/css">
	.st0{fill:#B3B3B3;}
	.st1{fill:#F5F5F5;stroke:#999999;stroke-width:4;stroke-linecap:round;stroke-linejoin:round;stroke-miterlimit:10;}
	.st2{fill:#999999;}
	.st3{fill:#FDD4B5;stroke:#999999;stroke-width:3;stroke-linecap:round;stroke-linejoin:round;stroke-miterlimit:10;}
	.st4{opacity:0.5;}
	.st5{fill:#FFFFFF;}
	.st6{fill:#808080;}
</style>
<g>
	<rect class="st0" width="320" height="1200"/>
</g>
<path class="st1" d="M118,673.2c0,0-18.8,2-27.8,2.5c-9,0.4-5.9,7.8-3.1,9.2c2.9,1.4,37.9,5.1,46.9,5.3c0,0,23.8,46.7,27.6,54.9
	c4,8.6,11.3,6.2,8.2-1.6c-3.3-8.6-6.1-22.7-6.6-24c0,0,23.3-5.5,26.6-7.4c0,0,9.8,16,12.1,20.1s8.8,5.1,8.2-1.8
	s-10.2-30.7-12.9-37.1c-2.7-6.3-9-24.7-9-24.8c-0.1-2,24.3-20.6,29.3-24.8c7.4-6.2,6.1-13.5-1.6-10.2c-7.8,3.3-18.4,10.4-19.9,11.1
	c-11.6,5-22.5,11.2-34.5,15.7C148.1,665.2,132.4,672,118,673.2z"/>
<g>
	<path class="st1" d="M210.6,582.6c5.7-5.4,3.7-4.6,16.8-11.5c13.1-6.9,29.3,1.3,31.5,16c2.3,14.6-2.3,26.1-17.8,30.6
		c-15.6,4.5-26.2,0.2-35.4,3.7c-9.2,3.5-16.4-9.9-9.4-20.8C203.2,589.8,204.8,588,210.6,582.6z"/>
	<path class="st1" d="M200.9,618.7c0,0,3.3-12.9,13.5-18.8c10.2-5.9,20.9-10.9,27.6-4.1c6.8,6.8,8.6,16.8,8.6,16.8"/>
	<path class="st1" d="M205.6,621.4c-0.2-1.2,11.3-17.6,22.7-18.4c11.5-0.8,19,7,19.9,10.9"/>
	<path class="st1" d="M207.3,620.8c3.6-4.7,8.3-9.2,13.9-11.4c6.3-2.5,13.1-1.7,17,0.3c2.4,1.3,5.9,3.3,7.2,5.9"/>
</g>
<path class="st1" d="M112.3,582.1c0,0,2-24.2,7.8-25c5.7-0.8,10.2,18.4,10.2,18.4l35-8c0,0,4.7-20.5,10.6-20.9s9.2,17.8,9.2,17.8
	s15.1,7.3,22.5,24.3c19.1,44.1-30.4,78.6-69.9,83.7c-0.3,0-0.5,0.1-0.8,0.1c-18,1.9-43.2,1.2-55-14.9c-14.7-20.1,0.4-44.8,6.8-52.4
	C95.1,597.7,112.3,582.1,112.3,582.1z"/>
<path class="st2" d="M138.5,573.7c0,0-1.8,10,1.2,8.4c3.1-1.6,6.1-8.4,6.6-10.6L138.5,573.7z"/>
<path class="st2" d="M126.3,592.9c0,0-1.5,6.7,1.2,6.5c2.7-0.2,4.1-5.7,4.4-7.5c0,0,0.7-3.8-2.8-3.3
	C127.4,588.9,126.3,592.9,126.3,592.9z"/>
<path class="st2" d="M163,586.1c-0.2,1.8-0.1,3.7,0.1,4.7c0.1,0.7,0.4,1.5,1.1,1.7c3.4,1,4.4-6.6,4.2-8.6c0-0.6-0.2-1.1-0.5-1.6
	c-0.6-0.8-1.6-0.9-2.5-0.7C163.9,582,163.3,584,163,586.1z"/>
<path class="st2" d="M153.6,570.2c0,0-1.8,10,1.2,8.4s6.3-7.8,6.8-10L153.6,570.2z"/>
<path class="st3" d="M139.7,603.6l17.2-1.8c0,0-4.1,19.2-6.6,24.6C147.9,631.6,146.1,613.4,139.7,603.6z"/>
<g class="st4">
	<path class="st5" d="M170.2,514l6.6-18c0,0,30.4-1.3,36-2.5c8.4-1.9,19.2-0.3,32-7.7c6.3-3.7,12.1-8.5,15.8-14.8
		c8.1-14,3.4-32.8-7.6-44.7c-11-11.9-26.9-17.9-42.7-21.5c-30.3-6.9-62.3-5.9-92,2.9c-11.6,3.4-23,8.1-32.1,15.9
		c-9.1,7.8-15.8,19.3-15.6,31.3c0.2,18.5,16.4,33.7,34.2,39c0,0,0,0,0,0c16.2,4.8,53.7,4.2,53.7,4.2L170.2,514z"/>
</g>
<g>
	<g>
		<path class="st6" d="M115.2,453.1h6.2l-3,17.9h-8.1L115.2,453.1z M123.6,445.6c0,1.4-0.4,2.4-1.2,3.2s-2,1.2-3.4,1.2
			c-1.1,0-1.9-0.3-2.5-0.8s-0.9-1.2-0.9-2.2c0-1.4,0.4-2.4,1.2-3.2c0.8-0.8,1.9-1.1,3.3-1.1c1.1,0,2,0.2,2.6,0.7
			S123.6,444.7,123.6,445.6z"/>
		<path class="st6" d="M146.4,464.6H139l2.4-11.3h-6.6l-2.4,11.3h-7.4l5.9-27.7h7.4l-2.1,10.3h6.6l2.1-10.3h7.4L146.4,464.6z"/>
		<path class="st6" d="M161.9,465c-2.6,0-4.7-0.7-6.1-2.1c-1.4-1.4-2.2-3.5-2.2-6.1c0-2.7,0.5-5.1,1.5-7.2c1-2.1,2.4-3.8,4.2-5
			c1.8-1.2,3.9-1.8,6.4-1.8c2.6,0,4.7,0.7,6.1,2.1c1.4,1.4,2.2,3.5,2.2,6.1c0,2.7-0.5,5.1-1.5,7.2c-1,2.1-2.4,3.8-4.2,5
			S164.3,465,161.9,465z M164.9,448.2c-1,0-1.9,0.9-2.7,2.6c-0.7,1.8-1.1,3.8-1.1,6.1c0,1.7,0.5,2.5,1.6,2.5c1,0,1.9-0.9,2.7-2.6
			c0.8-1.8,1.1-3.8,1.1-6.1c0-0.8-0.1-1.5-0.4-1.9C165.8,448.4,165.4,448.2,164.9,448.2z"/>
		<path class="st6" d="M183.4,464.6H176l6.2-29.5h7.3L183.4,464.6z"/>
		<path class="st6" d="M206.8,464.6H201l0.2-2.3H201c-0.7,1-1.5,1.7-2.3,2.1c-0.8,0.4-1.8,0.6-2.8,0.6c-2,0-3.5-0.7-4.6-2.1
			c-1-1.4-1.6-3.4-1.6-6.1c0-2.3,0.5-4.6,1.4-6.9c0.9-2.4,2.1-4.1,3.5-5.3c1.4-1.2,3-1.8,4.7-1.8c1.1,0,2,0.2,2.8,0.7
			c0.8,0.5,1.5,1.2,2.2,2.3h0.2l1-2.7h5.9L206.8,464.6z M199,459.1c0.6,0,1.2-0.4,1.8-1.1c0.6-0.7,1-1.7,1.4-3
			c0.3-1.2,0.5-2.5,0.5-3.6c0-0.8-0.1-1.5-0.4-2c-0.3-0.5-0.6-0.7-1.2-0.7c-1,0-1.8,0.8-2.6,2.4c-0.8,1.6-1.2,3.4-1.2,5.3
			C197.3,458.2,197.9,459.1,199,459.1z"/>
		<path class="st6" d="M212,462.2c0-1.4,0.4-2.4,1.2-3.2s2-1.2,3.4-1.2c1.1,0,1.9,0.3,2.5,0.8s0.9,1.2,0.9,2.2
			c0,1.4-0.4,2.5-1.2,3.2c-0.8,0.8-1.9,1.1-3.3,1.1c-1.1,0-2-0.2-2.6-0.7C212.4,463.8,212,463.1,212,462.2z M220.4,454.8h-6.2
			l3-17.9h8.1L220.4,454.8z"/>
	</g>
</g>
</svg>
