<?xml version="1.0" encoding="utf-8"?>
<svg version="1.1" xmlns="http://www.w3.org/2000/svg" xmlns:xlink="http://www.w3.org/1999/xlink" x="0px"
	 y="0px" viewBox="0 0 600 1200" style="enable-background:new 0 0 600 1200;" xml:space="preserve">
<style type="text/css">
	.st0{fill:#B3B3B3;}
	.st1{fill:#F5F5F5;stroke:#999999;stroke-width:5;stroke-linecap:round;stroke-linejoin:round;stroke-miterlimit:10;}
	.st2{fill:#999999;}
	.st3{fill:#FDD4B5;stroke:#999999;stroke-width:4;stroke-linecap:round;stroke-linejoin:round;stroke-miterlimit:10;}
	.st4{opacity:0.5;}
	.st5{fill:#FFFFFF;}
	.st6{fill:#808080;}
</style>
<g>
	<rect class="st0" width="600" height="1200"/>
</g>
<path class="st1" d="M241.2,724.5c0,0-28.3,3.1-41.8,3.7c-13.5,0.6-8.9,11.7-4.6,13.8c4.3,2.2,56.9,7.7,70.4,8
	c0,0,35.7,70.2,41.5,82.4c6.1,12.9,16.9,9.4,12.3-2.5c-5-12.9-9.2-34.1-9.8-36c0,0,35-8.3,40-11.1c0,0,14.8,24,18.1,30.1
	c3.4,6.1,13.2,7.7,12.3-2.8c-0.9-10.5-15.4-46.1-19.4-55.6c-4-9.5-13.5-37.1-13.5-37.2c-0.1-3.1,36.5-30.9,44-37.2
	c11.1-9.4,9.2-20.3-2.5-15.4c-11.7,4.9-27.6,15.7-29.8,16.6c-17.4,7.5-33.8,16.9-51.8,23.5C286.3,712.5,262.7,722.7,241.2,724.5z"/>
<g>
	<path class="st1" d="M380.1,588.5c8.6-8.1,5.5-6.8,25.2-17.2c19.7-10.4,44,2,47.3,24c3.4,22-3.4,39.2-26.7,46
		c-23.4,6.8-39.3,0.3-53.2,5.5c-13.8,5.2-24.6-14.9-14.1-31.2C369,599.4,371.5,596.7,380.1,588.5z"/>
	<path class="st1" d="M365.6,642.8c0,0,4.9-19.4,20.3-28.3s31.4-16.3,41.5-6.1c10.1,10.1,12.9,25.2,12.9,25.2"/>
	<path class="st1" d="M372.7,646.8c-0.3-1.8,16.9-26.4,34.1-27.7s28.6,10.5,29.8,16.3"/>
	<path class="st1" d="M375.2,645.8c5.4-7.1,12.4-13.8,20.9-17.1c9.4-3.7,19.7-2.6,25.5,0.5c3.6,1.9,8.8,5,10.8,8.9"/>
</g>
<path class="st1" d="M232.6,587.8c0,0,3.1-36.3,11.7-37.5c8.6-1.2,15.4,27.7,15.4,27.7l52.6-12c0,0,7.1-30.7,16-31.4
	c8.9-0.6,13.8,26.7,13.8,26.7s22.7,10.9,33.8,36.4c28.7,66.2-45.6,118.1-104.9,125.7c-0.4,0-0.8,0.1-1.2,0.1
	c-27,2.9-64.8,1.8-82.6-22.4c-22.1-30.1,0.6-67.3,10.1-78.7C206.7,611.1,232.6,587.8,232.6,587.8z"/>
<path class="st2" d="M271.9,575.2c0,0-2.8,15.1,1.8,12.6c4.6-2.5,9.2-12.6,9.8-16L271.9,575.2z"/>
<path class="st2" d="M253.6,603.9c0,0-2.2,10.1,1.8,9.8c4.1-0.3,6.1-8.6,6.6-11.2c0,0,1.1-5.7-4.2-4.9
	C255.2,597.9,253.6,603.9,253.6,603.9z"/>
<path class="st2" d="M308.7,593.8c-0.3,2.7-0.1,5.6,0.1,7c0.2,1.1,0.6,2.3,1.7,2.6c5.1,1.5,6.6-9.9,6.3-12.9
	c-0.1-0.8-0.2-1.7-0.7-2.4c-0.8-1.2-2.4-1.3-3.7-1C310.1,587.6,309.1,590.6,308.7,593.8z"/>
<path class="st2" d="M294.6,569.9c0,0-2.8,15.1,1.8,12.6c4.6-2.5,9.5-11.7,10.1-15.1L294.6,569.9z"/>
<path class="st3" d="M273.7,620l25.8-2.8c0,0-6.1,28.9-9.8,36.9S283.3,634.8,273.7,620z"/>
<g class="st4">
	<path class="st5" d="M285.7,521.3l8.1-22.3c0,0,37.5-1.6,44.5-3.1c10.3-2.3,23.8-0.3,39.6-9.5c7.8-4.5,15-10.5,19.5-18.3
		c10-17.3,4.2-40.5-9.4-55.2c-13.6-14.7-33.2-22.2-52.7-26.6c-37.4-8.5-77-7.2-113.7,3.6c-14.3,4.2-28.4,10-39.7,19.7
		s-19.5,23.8-19.3,38.7c0.3,22.9,20.3,41.7,42.2,48.2c0,0,0,0,0,0c20,6,66.3,5.2,66.3,5.2L285.7,521.3z"/>
</g>
<g>
	<g>
		<path class="st6" d="M215.7,445.6h7.7l-3.7,22.2h-10L215.7,445.6z M226,436.4c0,1.7-0.5,3-1.5,4s-2.4,1.5-4.2,1.5
			c-1.4,0-2.4-0.3-3.1-0.9s-1.1-1.5-1.1-2.7c0-1.7,0.5-3,1.5-4s2.4-1.4,4.1-1.4c1.4,0,2.5,0.3,3.2,0.9S226,435.3,226,436.4z"/>
		<path class="st6" d="M254.2,459.9H245l2.9-14h-8.1l-3,14h-9.2l7.2-34.3h9.2l-2.6,12.7h8.2l2.6-12.7h9.2L254.2,459.9z"/>
		<path class="st6" d="M273.3,460.4c-3.3,0-5.8-0.9-7.6-2.6s-2.7-4.3-2.7-7.6s0.6-6.2,1.9-8.9s3-4.7,5.2-6.2s4.9-2.2,7.9-2.2
			c3.3,0,5.8,0.9,7.6,2.6s2.7,4.3,2.7,7.6s-0.6,6.2-1.9,8.9s-3,4.7-5.2,6.2S276.3,460.4,273.3,460.4z M277.1,439.7
			c-1.3,0-2.4,1.1-3.3,3.3s-1.4,4.7-1.4,7.5c0,2.1,0.7,3.1,2,3.1c1.3,0,2.4-1.1,3.3-3.3s1.4-4.7,1.4-7.5c0-1-0.2-1.8-0.5-2.3
			S277.7,439.7,277.1,439.7z"/>
		<path class="st6" d="M299.9,459.9h-9.1l7.7-36.5h9.1L299.9,459.9z"/>
		<path class="st6" d="M328.9,459.9h-7.2l0.2-2.9h-0.2c-0.9,1.2-1.8,2.1-2.8,2.6s-2.2,0.8-3.4,0.8c-2.5,0-4.3-0.9-5.6-2.6
			s-1.9-4.2-1.9-7.5c0-2.8,0.6-5.6,1.7-8.6s2.6-5.1,4.3-6.6s3.7-2.2,5.8-2.2c1.3,0,2.5,0.3,3.5,0.9s1.9,1.5,2.7,2.9h0.2l1.2-3.3h7.3
			L328.9,459.9z M319.1,453.1c0.8,0,1.5-0.5,2.2-1.4s1.3-2.1,1.7-3.7s0.6-3,0.6-4.5c0-1-0.2-1.8-0.5-2.4s-0.8-0.9-1.5-0.9
			c-1.2,0-2.3,1-3.2,3s-1.4,4.2-1.4,6.6C317.1,452,317.8,453.1,319.1,453.1z"/>
		<path class="st6" d="M335.3,456.9c0-1.7,0.5-3,1.5-4s2.4-1.5,4.2-1.5c1.4,0,2.4,0.3,3.1,0.9s1.1,1.5,1.1,2.7c0,1.7-0.5,3-1.5,4
			s-2.3,1.4-4.1,1.4c-1.4,0-2.4-0.3-3.2-0.9S335.3,458.1,335.3,456.9z M345.7,447.8H338l3.7-22.2h10L345.7,447.8z"/>
	</g>
</g>
</svg>
